<svg width="148" height="150" viewBox="0 0 148 150" fill="none" xmlns="http://www.w3.org/2000/svg">
<path d="M51 126.6V113.3L58.6 126.6H62.9V107H58.9V120.4L51.3 107H47V126.6H47.2H51Z" fill="#D80613"/>
<path d="M68.2 124.1C70.3 126.1 72.7 127 75.6 127C78.4 127 80.9 126 82.9 124.1C84.9 122.2 86 119.8 86 117V116.4H73V120.2H80.9C80.4 121 79.7 121.7 78.8 122.3C77.8 122.9 76.7 123.2 75.7 123.2C73.8 123.2 72.2 122.5 70.9 121.1C70.4 120.5 69.9 119.9 69.6 119.1C69.3 118.3 69.1 117.6 69.1 116.8C69.1 115.9 69.3 115.1 69.7 114.2C70.1 113.4 70.6 112.7 71.2 112.1C72.4 111 73.8 110.5 75.5 110.5C76.5 110.5 77.4 110.7 78.2 111.2C79.1 111.6 79.8 112.2 80.3 113L80.4 113.1H85.1L85 112.8C84.3 110.9 83 109.4 81.2 108.3C79.4 107.2 77.5 106.6 75.5 106.6C72.7 106.6 70.2 107.6 68.2 109.6C66.2 111.6 65.1 114 65.1 116.9C65.1 119.8 66.1 122.2 68.2 124.1Z" fill="#D80613"/>
<path d="M29.5 122.1C29.8 123.1 30.3 124 31.1 124.7C31.8 125.4 32.7 126 33.8 126.5C34.8 126.9 35.9 127.1 37 127.1C38.1 127.1 39.2 126.9 40.3 126.4C41.3 125.9 42.2 125.3 42.9 124.6C43.6 123.9 44.1 123 44.4 122C44.6 121.3 44.7 120.3 44.7 119.2V107H40.7V119.2C40.7 119.6 40.6 120 40.5 120.4C40.4 120.8 40.1 121.2 39.8 121.6C39.5 122 39.1 122.4 38.5 122.7C38 123 37.5 123.1 37 123.1C36.4 123.1 35.8 123 35.2 122.7C34.6 122.4 34.2 122.1 33.9 121.6C33.5 120.8 33.3 120 33.3 119.1V107H29.3V107.2V119.1C29.1 120.4 29.3 121.3 29.5 122.1Z" fill="#D80613"/>
<path d="M92.5 126.7V113.3L100.3 126.7H104.8V107.1H100.6V120.4L92.8 107.1H88.4V126.7H88.6H92.5Z" fill="#D80613"/>
<path d="M4.40002 126.6H4.60002H8.30003V110.9H11.9V107H0.900024V110.9H4.40002V126.6Z" fill="#D80613"/>
<path d="M130.9 126.6V113.4L135.4 126.6H138.7L143.3 113.4V126.6H147.3V107H142.1L137.1 121.2L132.1 107H126.9V126.6H127.1H130.9Z" fill="#D80613"/>
<path d="M17.9 126.6V119.7L22.6 126.6H27.5L22.3 119.4C22.9 119.3 23.4 119.1 23.9 118.8C24.5 118.5 25 118.1 25.5 117.6C26 117.1 26.4 116.4 26.7 115.6C27 114.8 27.1 114 27.1 113.3C27.1 112.4 26.9 111.5 26.5 110.6C26.1 109.7 25.5 109 24.8 108.4C24.1 107.8 23.3 107.4 22.5 107.3C21.7 107.1 20.8 107 19.6 107H13.8V126.6H14H17.9ZM17.9 110.9H20.1C20.9 110.9 21.6 111.1 22.1 111.5C22.4 111.8 22.6 112 22.8 112.4C23 112.7 23 113.1 23 113.5C23 114.2 22.7 114.9 22.2 115.4C21.9 115.6 21.6 115.8 21.2 115.9C20.8 116 20.2 116.1 19.5 116.1H17.8V110.9H17.9Z" fill="#D80613"/>
<path d="M120.4 119.4C118 117.7 115.2 116.8 112.4 116.8C111.4 116.8 110.4 116.9 109.4 117.1C111.8 117.2 114.3 117.9 116.5 119.4C118.8 120.9 120.7 123.3 121.9 126.6H125.8C124.6 123.5 122.7 121.1 120.4 119.4Z" fill="#D80613"/>
<path d="M114.5 116.5L115.9 112.8L117.7 117.4C118.7 117.8 119.7 118.4 120.6 119C121.8 119.8 122.8 120.9 123.8 122L117.5 106.9H114.5L110.6 116.4C111.2 116.3 111.9 116.3 112.5 116.3C113 116.3 113.8 116.4 114.5 116.5Z" fill="#D80613"/>
<path d="M106.2 126.6H106.5H110.5L113.6 118.5C112.4 118 111.1 117.7 109.8 117.6L106.2 126.6Z" fill="#D80613"/>
<path d="M128.4 9.7C125.8 9.7 123.6 7.5 123.6 4.9C123.6 2.2 125.8 0 128.4 0C131 0 133.2 2.2 133.2 4.9C133.2 7.5 131 9.7 128.4 9.7ZM128.4 0.8C126.2 0.8 124.4 2.6 124.4 4.9C124.4 7.1 126.2 8.9 128.4 8.9C130.6 8.9 132.4 7.1 132.4 4.9C132.4 2.6 130.6 0.8 128.4 0.8Z" fill="#269141"/>
<path d="M127.1 2.89999C127.4 2.79999 127.9 2.79999 128.3 2.79999C129 2.79999 129.4 2.89999 129.7 3.09999C129.9 3.29999 130.1 3.59999 130.1 3.89999C130.1 4.39999 129.7 4.79999 129.2 4.89999C129.6 4.99999 129.8 5.29999 129.9 5.69999C130.1 6.29999 130.2 6.69999 130.3 6.79999H129.7C129.6 6.69999 129.5 6.29999 129.4 5.79999C129.3 5.19999 129 4.99999 128.4 4.99999H127.8V6.79999H127.2V2.89999H127.1ZM127.7 4.69999H128.3C129 4.69999 129.4 4.39999 129.4 3.89999C129.4 3.39999 129 3.09999 128.3 3.09999C128 3.09999 127.8 3.09999 127.7 3.09999V4.69999Z" fill="#269141"/>
<path d="M48 51.1C63.6 48.6 81.8 54.5 89.5 73H102.4C93.9 51.2 68.5 42.5 48 51.1Z" fill="#D80613"/>
<path d="M111.2 73.8C107 77.3 102 80.2 96.4 82.2C90.8 84.2 84.6 85.3 78.1 85.3C71.5 85.3 65.2 84.1 59.5 82.1C55.2 80.5 51.3 78.5 47.9 76C45.3 74.2 43 72.1 40.9 69.8C37.8 66.4 35.5 62.7 33.8 58.7C33 56.7 32.4 54.7 32 52.6C31.6 50.5 31.4 48.4 31.4 46.2C31.4 43.6 31.7 41.1 32.3 38.6C33.3 34.3 35.2 30.2 37.8 26.4C39.8 23.6 42.2 21 45 18.6C49.2 15.1 54.2 12.2 59.8 10.2C65.4 8.2 71.6 7.1 78.1 7.1C84.7 7.1 91 8.3 96.7 10.3C100.9 11.9 104.9 13.9 108.3 16.4C110 17.6 111.7 19 113.2 20.4L118.9 16.2C109 6.3 94.4 0 78.1 0C48.5 0 24.6 20.7 24.6 46.2C24.6 71.7 48.6 92.4 78.1 92.4C94.4 92.4 109 86.1 118.9 76.1L113.2 71.9C112.5 72.6 111.8 73.2 111.2 73.8Z" fill="#269141"/>
<path d="M55.1 73H64.6V55C61.5 54 58.3 53.4 55.1 53.2V73Z" fill="#D80613"/>
<path d="M109.5 39V26.7H48V39H55.1V45.8C57.4 45.4 59.7 45.3 62.1 45.3C62.9 45.3 63.8 45.3 64.6 45.4V39H109.5Z" fill="#0066A3"/>
<path d="M102.4 67.1V41.4H93V55.6C96.7 58.8 99.9 62.6 102.4 67.1Z" fill="#D80613"/>
<path d="M103 136H99.8C99.4 135.4 98.8 135 98.2 134.6C97.5 134.3 96.8 134.1 96.1 134.1C94.8 134.1 93.7 134.5 92.8 135.3C92.3 135.7 91.9 136.3 91.6 136.9C91.3 137.5 91.2 138.2 91.2 138.9C91.2 139.5 91.3 140.1 91.6 140.7C91.8 141.3 92.2 141.8 92.6 142.2C93.6 143.2 94.9 143.8 96.3 143.8C97.1 143.8 97.9 143.6 98.7 143.1C99.5 142.6 100.1 142 100.5 141.3H94.5V138.8H103.9V139.1C103.9 141.1 103.1 142.9 101.6 144.3C100.1 145.7 98.3 146.4 96.2 146.4C94.1 146.4 92.3 145.7 90.8 144.3C89.3 142.9 88.5 141.1 88.5 139.1C88.5 137 89.3 135.3 90.7 133.8C92.2 132.4 94 131.7 96.1 131.7C97.6 131.7 99 132.1 100.3 132.9C101.5 133.5 102.4 134.6 103 136Z" fill="#D80613"/>
<path d="M105.7 146V135.4H108.1V136.4C108.7 135.5 109.4 135.1 110.4 135.1H110.6V137.5C110 137.5 109.5 137.7 109 138C108.7 138.2 108.5 138.5 108.4 138.8C108.3 139.1 108.2 139.5 108.2 139.9V140.3V146H105.7Z" fill="#D80613"/>
<path d="M117.4 135C119 135 120.3 135.5 121.4 136.7C122.5 137.8 123 139.1 123 140.7C123 142.3 122.4 143.6 121.3 144.7C120.2 145.8 118.8 146.3 117.2 146.3C115.6 146.3 114.3 145.7 113.2 144.6C112.1 143.5 111.5 142.2 111.5 140.6C111.5 139 112.1 137.7 113.2 136.6C114.4 135.6 115.8 135 117.4 135ZM117.3 137.5C116.9 137.5 116.5 137.6 116.1 137.7C115.7 137.9 115.4 138.1 115.1 138.4C114.5 139 114.2 139.7 114.2 140.6C114.2 141.5 114.5 142.2 115.1 142.8C115.7 143.4 116.4 143.7 117.3 143.7C118.2 143.7 119 143.4 119.5 142.8C120.1 142.2 120.4 141.5 120.4 140.6C120.4 139.7 120.1 139 119.5 138.4C118.9 137.8 118.2 137.5 117.3 137.5Z" fill="#D80613"/>
<path d="M131.6 135.3H134.2V145.9H131.8V144.8C131.5 145.3 131.1 145.7 130.7 145.9C130.2 146.1 129.7 146.3 129.1 146.3C127.7 146.3 126.6 145.8 125.7 144.8C125.3 144.3 125 143.8 124.8 143.2C124.7 142.8 124.6 142.1 124.6 141.3V135.3H127.2V140.5C127.2 141 127.2 141.4 127.3 141.7C127.3 142 127.4 142.4 127.6 142.6C128 143.3 128.6 143.7 129.5 143.7C130.4 143.7 131 143.4 131.3 142.7C131.6 142.2 131.7 141.4 131.7 140.5V135.3H131.6Z" fill="#D80613"/>
<path d="M136 149.5V135.4H138.4V136.8C139.2 135.7 140.4 135.1 141.9 135.1C142.7 135.1 143.4 135.2 144 135.5C144.6 135.8 145.2 136.2 145.8 136.8C146.8 137.8 147.3 139.1 147.3 140.7C147.3 142.2 146.8 143.6 145.8 144.7C144.8 145.8 143.5 146.4 141.9 146.4C141.2 146.4 140.6 146.3 140.1 146.1C139.6 145.9 139.1 145.5 138.7 145V149.7H136V149.5ZM141.6 137.5C140.7 137.5 140 137.8 139.4 138.4C138.8 139 138.5 139.7 138.5 140.6C138.5 141.1 138.6 141.5 138.7 141.9C138.9 142.3 139.1 142.6 139.5 143C139.8 143.2 140.1 143.4 140.5 143.6C140.9 143.7 141.2 143.8 141.6 143.8C142.5 143.8 143.3 143.5 143.9 142.9C144.5 142.3 144.8 141.5 144.8 140.7C144.8 139.8 144.5 139.1 143.9 138.5C143.2 137.8 142.5 137.5 141.6 137.5Z" fill="#D80613"/>
</svg>
