<?xml version="1.0" encoding="utf-8"?>
<!-- Designed by Vexels.com - 2016 All Rights Reserved - https://vexels.com/terms-and-conditions/  -->

<svg version="1.1" id="Layer_1" xmlns="http://www.w3.org/2000/svg" xmlns:xlink="http://www.w3.org/1999/xlink" x="0px" y="0px"
	 width="1200px" height="1200px" viewBox="0 0 1200 1200" enable-background="new 0 0 1200 1200" xml:space="preserve">
<g>
	<g>
		<g>
			<g>
				<g>
					<g>
						<g>
							<path d="M421.251,960.51l-15.053-12.709c-12.382-10.455-303.721-257.563-341.685-385.27
								c-37.056-124.646-2.159-232.437,93.339-288.33c102.45-59.979,175.408-21.904,178.476-20.258
								c11.337,6.126,15.562,20.276,9.438,31.613c-6.09,11.271-20.109,15.52-31.399,9.555
								c-2.567-1.294-54.608-26.495-132.938,19.355c-76.854,44.984-103.166,130.563-72.188,234.77
								c26.649,89.634,221.686,272.004,312.01,350.05c32.431-28.03,78.367-69.509,125.156-115.313
								c-50.217-49.928-96.639-109.699-124.402-177.477c-3.985-8.134-30.7-64.872-35.79-133.403
								c-7.432-100.073,34.249-175.96,120.542-219.453c41.278-20.808,135.427-23.516,204.812,25.517
								c84.945,60.022,106.057,150.069,66.42,283.375c-17.688,59.469-90.311,144.835-164.121,220.135
								c69.346,60.988,139.805,102.919,168.773,119.095c87.018-76.751,281.188-261.931,308.115-352.523
								c30.98-104.208,4.672-189.783-72.189-234.77c-78.65-46.053-130.791-20.46-132.971-19.34
								c-11.338,6.126-25.375,1.821-31.486-9.508c-6.121-11.336-1.777-25.553,9.557-31.679c3.055-1.646,76.01-39.714,178.479,20.258
								c95.5,55.906,130.396,163.688,93.344,288.33c-37.924,127.562-322.34,374.638-334.428,385.095l-11.832,10.237l-13.957-7.063
								c-6.555-3.316-101.447-52.002-194.762-134.815c-72.681,71.183-138.467,126.977-144.211,131.824L421.251,960.51z
								 M579.896,285.979c-22.418,0-41.354,3.892-52.146,9.323c-69.054,34.801-101.018,93.459-95.014,174.334
								c4.709,63.339,31.102,116.214,31.359,116.738l0.786,1.725c24.977,61.328,67.922,116.297,114.771,162.688
								c71.968-73.293,138.798-151.756,153.605-201.558c33.584-112.939,18.586-184.488-48.621-231.978
								C651.832,294.076,612.242,285.979,579.896,285.979z"/>
						</g>
					</g>
				</g>
			</g>
		</g>
	</g>
</g>
</svg>
